<?xml version="1.0" encoding="UTF-8"?>
<svg xmlns="http://www.w3.org/2000/svg" viewBox="0 0 622.4 601.51">
  <defs>
    <style>
      .cls-1 {
        fill: #fff;
      }

      .cls-2 {
        fill: #181718;
      }

      .cls-3 {
        fill: #171617;
      }

      .cls-4 {
        fill: #ed1f24;
      }
    </style>
  </defs>
  <g id="Layer_2" data-name="Layer 2">
    <path class="cls-2" d="m30.22,601.51V.67C49.46.48,77.18.25,110.61.11,137.46,0,158.75,0,200.25,0c64.74,0,112.12.11,135.29.11,31.25,0,46.88,0,46.92,0,1.32-.02,4.8-.07,9.49,0,0,0,11.63.17,21.72,1.03,23.3,2,45.82,8.49,45.82,8.49,7.6,2.19,24.5,7.47,44.68,17.93,12.42,6.43,25.46,13.17,40.06,26.05,18.39,16.22,28.08,32.18,30.25,35.85,8.54,14.4,12.98,27.75,15.41,37.26,2.89,13.52,8.06,46.72-6.72,84.03-20.41,51.52-64.04,73.5-74.51,78.43,13.17,3.63,54.64,16.86,84.59,58.12,22.37,30.82,27.24,62.02,28.57,76.57,1.32,15.28,2.33,52.28-19.75,88.97-18.43,30.63-44.18,46.48-57.28,54.34-15.87,9.52-29.2,14.19-40.06,17.93-18.72,6.44-47.89,14.12-85.64,14.71-129.62.56-259.25,1.12-388.87,1.68Z"/>
  </g>
  <g id="Layer_3" data-name="Layer 3">
    <path class="cls-1" d="m156.48,211.59v-101.47h286.35c5.53.44,15.68,2.01,26.26,8.51,7.37,4.53,12.31,9.83,15.34,13.66,3.54,5.19,9.15,14.95,10.82,28.36.95,7.64.34,14.2-.53,19.02-1.27,3.74-3.37,9.17-6.72,15.35-3.61,6.67-7.08,11.25-12.11,17.83-3.13,4.1-7.5,9.56-13.1,15.76-46.85,54.55-93.7,109.1-140.55,163.66h129.13c6.08-.36,16.93,0,27.17,6.44,5.17,3.25,8.53,7.02,10.92,9.73,2.94,3.34,8.52,10.24,11.97,20.17,5.91,16.98-.59,31.92-2.52,36.55-4.35,10.45-10.92,17.44-15.57,21.51-1.83,1.36-4.57,3.14-8.17,4.64-4.83,2.02-8.92,2.56-12.25,2.98-2.51.32-5.69.4-12.05.56-3.17.08-5.8.12-7.63.14H151.85v-82.35l172.95-201.26-168.33.21Z"/>
  </g>
  <g id="Layer_4" data-name="Layer 4">
    <circle class="cls-4" cx="184.16" cy="286.92" r="32.77"/>
  </g>
  <g id="Layer_5" data-name="Layer 5">
    <polygon class="cls-3" points="324.38 285.59 368.64 236.71 378.58 236.71 335.03 285.59 324.38 285.59"/>
    <polygon class="cls-3" points="216.93 411.02 261.19 362.14 271.14 362.14 227.58 411.02 216.93 411.02"/>
    <polygon class="cls-3" points="426.02 167.9 470.27 119.02 480.22 119.02 436.66 167.9 426.02 167.9"/>
  </g>
</svg>