<?xml version="1.0" encoding="utf-8"?>
<!-- Generator: Adobe Illustrator 23.0.6, SVG Export Plug-In . SVG Version: 6.00 Build 0)  -->
<svg version="1.1" id="Layer_1" xmlns="http://www.w3.org/2000/svg" xmlns:xlink="http://www.w3.org/1999/xlink" x="0px" y="0px"
	 viewBox="0 0 1132.8 1497.2" style="enable-background:new 0 0 1132.8 1497.2;" xml:space="preserve">
<style type="text/css">
	.st0{opacity:0.15;}
	.st1{fill:#020203;}
</style>
<g class="st0">
	<path class="st1" d="M1132.6,565.6V307.2l-73.9,25.7V256l-73.9,25.7v-77L911,230.5v-76.9l-73.9,25.7v-77l-73.9,25.7V51.2L689.4,77
		V0L0,240v257.6l73.9-25.7v76.8l73.9-25.7V600l73.3-25.5v280.4l-221,76.9v258.4l73.9-25.7v76.9l73.9-25.7v76.9l73.9-25.7v76.9
		l73.9-25.7v76.9l73.9-25.7v76.9l73.9-25.7v76.9l689.5-240V999.6l-73.9,25.7v-76.9L985,974v-76.9l-73.3,25.5V642.3L1132.6,565.6z
		 M1107.3,342.7v204.9l-221,76.9v230.2l-48.6,16.9V591.3l221-76.9V359.7L1107.3,342.7z M984.9,1077.9l48.6-16.9v127.2l-565.1,196.7
		v-50.2l516.5-179.8V1077.9z M959.7,1137l-491.2,171v-50.2l442.6-154v-0.1l48.6-16.9V1137z M147.7,419.4l-48.6,16.9V309.1
		l565.1-196.7v50.2L147.7,342.4V419.4z M172.9,410.7v-50.3l491.2-171v50.2L172.9,410.7z M885.8,931.8l-48.1,16.7v-50.2l48.1-16.7
		V931.8z M368.7,573.2L320.6,590v-50.2l48.1-16.7V573.2z M738.1,906.3L690,923.1V873l48.1-16.7V906.3z M516.4,675.6l-48,16.7v-50.2
		l48-16.7V675.6z M468.4,719.1l48-16.7v50.2l-48,16.7V719.1z M664.2,778.2l-48,16.7v-50.2l48-16.7V778.2z M616.2,821.7l48-16.7v50.2
		l-48,16.7V821.7z M590.3,726.8l-48,16.7v-50.2l48-16.7V726.8z M517,598.5l-48.6,16.9v-50.3l48.6-16.9V598.5z M443.2,547.2v0.2
		l-48.6,16.9V514l48.7-16.9L443.2,547.2L443.2,547.2z M394.6,591l48.1-16.7v50.2l-48.1,16.7V591z M542.3,770.5l48-16.7v50.1
		l-48,16.7V770.5z M615.6,898.8l48.6-16.9v50.3l-48.6,16.9V898.8z M689.4,950.1v-0.2l48.6-16.9v50.3l-48.7,16.9L689.4,950.1
		L689.4,950.1z M763.9,924.1l48.1-16.7v50.2l-48.1,16.7V924.1z M811.9,880.6l-48.1,16.7v-50.1l48.1-16.7V880.6z M738.1,829.4
		L690,846.2V796l48.1-16.7V829.4z M664.8,700.9l-48.6,16.9V513.8l48.6-16.9V700.9z M590.9,649.8l-48.6,16.9V539.5l48.6-16.9V649.8z
		 M542.3,512.7v-50.2l48.6-16.9v50.2L542.3,512.7z M517,521.5l-48.6,16.9v-50.2l48.6-16.9V521.5z M468.4,461.5v-50.2l48.6-16.9v50.2
		L468.4,461.5z M320.7,513.1v-50.3l122.5-42.7v50.2L320.7,513.1z M246.8,461.8v-50.3l196.3-68.3v50.2L246.8,461.8z M294.9,471.9V522
		l-48.1,16.7v-50.2L294.9,471.9z M320.7,616.7l48.1-16.7v50.2l-48.1,16.7V616.7z M394.6,667.9l48.1-16.7v50.2l-48.1,16.7V667.9z
		 M467.8,796.3l48.6-16.9v204.1l-48.6,16.9V796.3z M541.7,847.6l48.6-16.9v127.2l-48.6,16.9V847.6z M590.3,984.6v50.2l-48.6,16.9
		v-50.2L590.3,984.6z M615.6,975.8l48.6-16.9v50.2l-48.6,16.9V975.8z M664.2,1035.8v50.2l-48.6,16.9v-50.2L664.2,1035.8z
		 M811.9,984.3v50.2l-122.5,42.7v-50.2L811.9,984.3z M885.8,1035.5v50.3l-196.3,68.3v-50.2L885.8,1035.5z M837.7,1025.4v-50.1
		l48.1-16.7v50.1L837.7,1025.4z M812.4,573.3v230.2l-48.6,16.9V540.1l221-76.9v-77.8l48.6-16.9v128L812.4,573.3z M959.7,445.3
		l-221,76.9v230.2L690,769.3v-281l269.6-94.1V445.3z M911.1,384.3v-50.2l48.6-16.9v50.2L911.1,384.3z M885.8,393.2L616.2,487v-50.1
		L885.8,343V393.2z M837.2,333.2V283l48.6-16.9v50.2L837.2,333.2z M811.9,341.9l-269.6,93.8v-50.1l269.6-93.9V341.9z M763.3,281.9
		v-50.2l48.6-16.9V265L763.3,281.9z M738.1,290.8l-269.6,93.8v-50.2l269.6-93.8V290.8z M689.4,230.7v-50.2l48.6-16.9v50.2
		L689.4,230.7z M221,420.7v50.2l-48.1,16.7v-50.2L221,420.7z M246.8,565.5l48.1-16.7v50.2l-48.1,16.7V565.5z M320.1,923.9V693.8
		l48.6-16.9v280.4l-221,76.9v77.8l-48.6,16.9v-128L320.1,923.9z M172.9,1103.1v-51.1l221-76.9V745l48.6-16.9v281.1L172.9,1103.1z
		 M221.5,1112.9v50.2l-48.6,16.9v-50.2L221.5,1112.9z M246.8,1104.2l269.6-93.8v50.1l-269.6,93.9L246.8,1104.2L246.8,1104.2z
		 M295.4,1164.2v50.2l-48.6,16.9v-50.2L295.4,1164.2z M320.7,1155.4l269.6-93.8v49.3l-269.7,93.9L320.7,1155.4z M369.3,1215.4v50.2
		l-48.6,16.9v-50.2L369.3,1215.4z M394.6,1206.6l269.6-93.8v50.2l-269.6,93.8V1206.6z M443.2,1266.6v50.2l-48.6,16.9v-50.2
		L443.2,1266.6z M911.6,1076.6v-50.1l48.1-16.7v50.1L911.6,1076.6z M1033.5,291.6v50.2l-48.6,16.9v-50.2L1033.5,291.6z M959.7,240.3
		v50.2l-48.6,16.9v-50.2L959.7,240.3z M885.8,189.2v50.2l-48.6,16.9v-50.2L885.8,189.2z M811.9,137.9v50.2L763.3,205v-50.2
		L811.9,137.9z M738.1,86.8v50.2l-48.6,16.9v-50.2L738.1,86.8z M25.2,462.1V258l639-222.4v50.2L73.8,291.2v153.9L25.2,462.1z
		 M99.1,513.2v-50.2l48.6-16.9v50.2L99.1,513.2z M172.9,564.5v-50.2l48.1-16.7v50.2L172.9,564.5z M25.2,1154.5V949.7l221-76.9V642.6
		l48.6-16.9V906l-221,76.9v154.7L25.2,1154.5z M99.1,1205.8v-50.2l48.6-16.9v50.2L99.1,1205.8z M172.9,1256.9v-50.2l48.6-16.9v50.2
		L172.9,1256.9z M246.8,1308.2V1258l48.6-16.9v50.2L246.8,1308.2z M320.7,1359.3v-50.2l48.6-16.9v50.2L320.7,1359.3z M394.6,1410.6
		v-50.2l48.6-16.9v50.2L394.6,1410.6z M1107.3,1035.3v204.1l-639,222.4v-50.2l590.4-205.4v-153.9L1107.3,1035.3z M1033.5,984.1v50.1
		l-48.6,16.9V1001L1033.5,984.1z M959.7,932.9V983l-48.1,16.7v-50.1L959.7,932.9z"/>
</g>
</svg>
