<?xml version="1.0" encoding="utf-8"?>
<!-- Generator: Adobe Illustrator 24.3.0, SVG Export Plug-In . SVG Version: 6.00 Build 0)  -->
<svg version="1.1" id="Layer_1" xmlns="http://www.w3.org/2000/svg" xmlns:xlink="http://www.w3.org/1999/xlink" x="0px" y="0px"
	 viewBox="0 0 32 32" style="enable-background:new 0 0 32 32;" xml:space="preserve">
<style type="text/css">
	.st0{fill:#DF2B2F;}
</style>
<g id="Layer_17">
	<path class="st0" d="M25.1,6H6.9C4.7,6,3,7.7,3,9.9v11.2C3,23.3,4.7,25,6.9,25h18.2c2.1,0,3.9-1.7,3.9-3.9V9.9
		C29,7.7,27.3,6,25.1,6z M25.1,8h0.2L16,14.8L6.7,8h0.2H25.1z M27,21.1c0,1-0.8,1.9-1.9,1.9H6.9c-1,0-1.9-0.9-1.9-1.9V9.9
		c0-0.2,0-0.4,0.1-0.6l10.3,7.5c0.4,0.3,0.8,0.3,1.2,0l10.3-7.5C27,9.5,27,9.7,27,9.9L27,21.1z"/>
</g>
</svg>
