<?xml version="1.0" encoding="UTF-8"?>
<svg width="446px" height="684px" viewBox="0 0 446 684" version="1.1" xmlns="http://www.w3.org/2000/svg" xmlns:xlink="http://www.w3.org/1999/xlink">
    <!-- Generator: Sketch 52.6 (67491) - http://www.bohemiancoding.com/sketch -->
    <title>v</title>
    <desc>Created with Sketch.</desc>
    <g id="v" stroke="none" stroke-width="1" fill="none" fill-rule="evenodd" opacity="0.599999964">
        <g id="crystal" transform="translate(133.000000, 401.000000)" stroke="#B9B9B9" stroke-width="6">
            <polygon id="Path" transform="translate(194.612973, 180.618429) rotate(-30.000000) translate(-194.612973, -180.618429) " points="194.706258 298.14962 350.6223 147.495618 287.04826 63.189235 194.576579 63.1382418 102.084685 63.0872375 38.6036462 147.323556"></polygon>
            <polyline id="Path" transform="translate(154.488977, 203.994274) rotate(-30.000000) translate(-154.488977, -203.994274) " points="108.539042 86.4632815 118.171677 170.739919 200.438913 321.525266"></polyline>
            <path d="M21.8520325,151.50331 L333.870681,151.665344" id="Path" transform="translate(177.861357, 151.584327) rotate(-30.000000) translate(-177.861357, -151.584327) "></path>
            <path d="M79.094994,179.169305 L160.494229,94.3808422" id="Path" transform="translate(119.794611, 136.775073) rotate(-30.000000) translate(-119.794611, -136.775073) "></path>
            <polyline id="Path" transform="translate(234.677903, 158.725397) rotate(-30.000000) translate(-234.677903, -158.725397) " points="280.49816 41.245011 270.95643 125.511074 188.857646 276.205783"></polyline>
            <path d="M233.763709,138.12773 L148.82947,53.2475439" id="Path" transform="translate(191.296589, 95.687637) rotate(-30.000000) translate(-191.296589, -95.687637) "></path>
        </g>
        <g id="crystal" transform="translate(62.000000, 0.000000)" stroke="#B9B9B9" stroke-width="5">
            <polygon id="Path" transform="translate(47.000000, 41.500000) rotate(20.000000) translate(-47.000000, -41.500000) " points="47.0025264 71 86 33.1564637 70.1190646 12 47.0025264 12 23.8809354 12 8 33.1564637"></polygon>
            <polyline id="Path" transform="translate(36.500000, 37.500000) rotate(20.000000) translate(-36.500000, -37.500000) " points="25 8 27.402535 29.1564637 48 67"></polyline>
            <path d="M11,31.5 L89,31.5" id="Path" transform="translate(50.000000, 31.500000) rotate(20.000000) translate(-50.000000, -31.500000) "></path>
            <path d="M34,29 L55,8" id="Path" transform="translate(44.500000, 18.500000) rotate(20.000000) translate(-44.500000, -18.500000) "></path>
            <polyline id="Path" transform="translate(57.500000, 44.500000) rotate(20.000000) translate(-57.500000, -44.500000) " points="69 15 66.5969399 36.1564637 46 74"></polyline>
            <path d="M75,37 L54,16" id="Path" transform="translate(64.500000, 26.500000) rotate(20.000000) translate(-64.500000, -26.500000) "></path>
        </g>
        <g id="crystal" transform="translate(0.000000, 493.000000)" stroke="#B9B9B9" stroke-width="5">
            <polygon id="Path" transform="translate(44.000000, 53.223131) rotate(20.000000) translate(-44.000000, -53.223131) " points="74 53.2195929 44.0024898 98.2231309 14 53.2195929 44.0024898 8.22313093"></polygon>
            <path d="M14.1710101,52.7532846 L74.1710101,52.7532846" id="Path" transform="translate(44.171010, 52.753285) rotate(20.000000) translate(-44.171010, -52.753285) "></path>
            <polyline id="Path" transform="translate(37.891998, 51.000000) rotate(20.000000) translate(-37.891998, -51.000000) " points="44.391998 6 31.391998 50.996462 44.391998 96"></polyline>
            <polyline id="Path" transform="translate(51.047695, 55.788282) rotate(20.000000) translate(-51.047695, -55.788282) " points="44.5476947 10.788282 57.5476947 55.784744 44.5476947 100.788282"></polyline>
        </g>
        <g id="crystal" transform="translate(109.000000, 196.000000)" stroke="#B9B9B9" stroke-width="6">
            <polygon id="Path" transform="translate(91.903691, 79.756801) rotate(-15.000000) translate(-91.903691, -79.756801) " points="91.913691 140.801801 170.553691 63.3218007 131.043691 18.7118007 52.773691 18.7118007 13.253691 63.3218007"></polygon>
            <path d="M9,63.8818098 L166.3,63.8818098" id="Path" transform="translate(87.650000, 63.881810) rotate(-15.000000) translate(-87.650000, -63.881810) "></path>
            <polyline id="Path" transform="translate(74.338330, 84.463425) rotate(-15.000000) translate(-74.338330, -84.463425) " points="73.8533299 23.4184251 56.1433299 68.0284251 92.5333299 145.508425"></polyline>
            <polyline id="Path" transform="translate(109.488371, 75.045000) rotate(-15.000000) translate(-109.488371, -75.045000) " points="109.963371 14 127.683371 58.61 91.2933707 136.09"></polyline>
        </g>
    </g>
</svg>