<?xml version="1.0" encoding="utf-8"?>
<!-- Generator: Adobe Illustrator 24.0.0, SVG Export Plug-In . SVG Version: 6.00 Build 0)  -->
<svg version="1.1" id="Layer_1" xmlns="http://www.w3.org/2000/svg" xmlns:xlink="http://www.w3.org/1999/xlink" x="0px" y="0px"
	 viewBox="0 0 64 64" style="enable-background:new 0 0 64 64;" xml:space="preserve">
<style type="text/css">
	.st0{fill:#DF2B2F;}
</style>
<g>
	<g id="Icon-Close-O" transform="translate(378.000000, 278.000000)">
		<path id="Fill-52" class="st0" d="M-345.9-222.1c-13.2,0-23.9-10.7-23.9-23.9c0-13.2,10.7-23.9,23.9-23.9
			c13.2,0,23.9,10.7,23.9,23.9C-322-232.9-332.7-222.1-345.9-222.1L-345.9-222.1z M-345.9-267.4c-11.7,0-21.3,9.6-21.3,21.3
			s9.6,21.3,21.3,21.3s21.3-9.6,21.3-21.3S-334.2-267.4-345.9-267.4L-345.9-267.4z"/>
		<polyline id="Fill-53" class="st0" points="-356.3,-233.8 -358.2,-235.7 -335.6,-258.3 -333.7,-256.4 -356.3,-233.8 		"/>
		<polyline id="Fill-54" class="st0" points="-335.6,-233.8 -358.2,-256.4 -356.3,-258.3 -333.7,-235.7 -335.6,-233.8 		"/>
	</g>
</g>
</svg>
