<?xml version="1.0" encoding="utf-8"?>
<!-- Generator: Adobe Illustrator 24.0.0, SVG Export Plug-In . SVG Version: 6.00 Build 0)  -->
<svg version="1.1" id="Layer_1" xmlns="http://www.w3.org/2000/svg" xmlns:xlink="http://www.w3.org/1999/xlink" x="0px" y="0px"
	 viewBox="0 0 64 64" style="enable-background:new 0 0 64 64;" xml:space="preserve">
<style type="text/css">
	.st0{fill:#DF2B2F;}
</style>
<g>
	<g id="Icon-External-Link" transform="translate(382.000000, 380.000000)">
		<polyline id="Fill-118" class="st0" points="-347.7,-343.4 -373.4,-369.2 -371.2,-371.4 -345.4,-345.7 -347.7,-343.4 		"/>
		<polyline id="Fill-119" class="st0" points="-374,-354.9 -374,-372 -356.9,-372 -356.9,-368.6 -370.6,-368.6 -370.6,-354.9 
			-374,-354.9 		"/>
		<path id="Fill-120" class="st0" d="M-365.4-324c-2.9,0-5.2-2.3-5.1-5.1V-348h3.4v18.9c0,0.9,0.8,1.7,1.7,1.7h34.3
			c0.9,0,1.7-0.8,1.7-1.7v-34.3c0-0.9-0.8-1.7-1.7-1.7H-350v-3.4h18.9c2.8,0,5.1,2.3,5.1,5.1v34.3c0,2.8-2.3,5.1-5.1,5.1H-365.4"/>
	</g>
</g>
</svg>
