<svg width="15" height="15" viewBox="0 0 15 15" fill="none" xmlns="http://www.w3.org/2000/svg">
<path fill-rule="evenodd" clip-rule="evenodd" d="M0.0192805 0.576451C-0.18666 4.45635 1.26473 8.24055 4.01133 10.988C6.75861 13.7353 10.5435 15.1867 14.4229 14.9807C14.7455 14.963 14.9987 14.6961 14.9987 14.3727V10.2121L11.061 9.15687C10.8512 9.09587 10.6249 9.15621 10.4734 9.31427L9.05221 10.7355C8.67117 11.1205 8.07239 11.1867 7.61591 10.8942C5.8431 9.77204 5.22609 9.15428 4.1032 7.38215C3.81135 6.92567 3.87759 6.32756 4.26257 5.94651L5.68378 4.5253H5.68312C5.84118 4.37446 5.90217 4.14819 5.84118 3.93832L4.78592 0H0.626646C0.303313 0 0.0363386 0.253772 0.0192805 0.576451Z" fill="#DF2B2F"/>
</svg>