<?xml version="1.0" encoding="utf-8"?>
<!-- Generator: Adobe Illustrator 23.1.1, SVG Export Plug-In . SVG Version: 6.00 Build 0)  -->
<svg version="1.1" id="Layer_1" xmlns="http://www.w3.org/2000/svg" xmlns:xlink="http://www.w3.org/1999/xlink" x="0px" y="0px"
	 viewBox="0 0 88.2 65.4" style="enable-background:new 0 0 88.2 65.4;" xml:space="preserve">
<style type="text/css">
	.st0{enable-background:new    ;}
	.st1{fill:#F7F7F7;}
</style>
<title>“</title>
<desc>Created with Sketch.</desc>
<g id="Page-1">
	<g class="st0">
		<path class="st1" d="M0,36.7c0-6.5,0.8-12,2.5-16.6c1.7-4.6,4.1-8.3,7.3-11.2c3.2-2.9,7-5.1,11.6-6.5C25.9,0.9,31,0.1,36.7,0
			l2.7,13.2c-12.3,1.4-18.1,7.1-17.5,17h13.4v35.2H0V36.7z M47.9,36.7c0-6.5,0.9-12,2.6-16.6c1.7-4.6,4.2-8.3,7.3-11.2
			c3.1-2.9,7-5.1,11.6-6.5C73.9,0.9,79,0.1,84.5,0l2.9,13.2c-12.2,1.4-18.1,7.1-17.7,17h13.4v35.2H47.9V36.7z"/>
	</g>
</g>
</svg>
