<svg width="250" height="200" viewBox="0 0 250 200" fill="none" xmlns="http://www.w3.org/2000/svg">
<path d="M81.5851 93.5294C91.2976 97.8431 98.8734 104.314 104.312 112.941C109.751 121.569 112.471 131.765 112.471 143.529C112.471 160.392 107.226 174.118 96.7366 184.706C86.2471 194.902 72.8438 200 56.5268 200C40.2098 200 26.6123 194.706 15.7343 184.118C5.24476 173.529 0 160 0 143.529C0 135.686 0.971251 127.843 2.91375 120C4.85626 112.157 9.12976 100.392 15.7343 84.7059L49.5338 0H107.226L81.5851 93.5294ZM219.114 93.5294C228.827 97.8431 236.402 104.314 241.841 112.941C247.28 121.569 250 131.765 250 143.529C250 160.392 244.755 174.118 234.266 184.706C223.776 194.902 210.373 200 194.056 200C177.739 200 164.141 194.706 153.263 184.118C142.774 173.529 137.529 160 137.529 143.529C137.529 135.686 138.5 127.843 140.443 120C142.385 112.157 146.659 100.392 153.263 84.7059L187.063 0H244.755L219.114 93.5294Z" fill="white"/>
</svg>
