<svg width="30" height="26" viewBox="0 0 30 26" fill="none" xmlns="http://www.w3.org/2000/svg">
<path d="M30 12.7796L23.8272 6.60023L17.6388 12.7796H21.9266V12.9208C21.9358 14.9955 21.2233 17.0089 19.9106 18.6175C18.5981 20.2259 16.7672 21.3292 14.73 21.7392C12.6933 22.149 10.5772 21.8401 8.74318 20.865C6.90922 19.8899 5.47121 18.3092 4.67479 16.3929C3.87842 14.4768 3.77296 12.3438 4.37663 10.3587C4.98032 8.37338 6.25558 6.65905 7.9846 5.50859C9.71362 4.35804 11.7889 3.84267 13.8563 4.05035C15.9236 4.25803 17.8546 5.17625 19.3192 6.64769L22.1621 3.80892C20.0424 1.68565 17.2505 0.362211 14.263 0.0641323C11.2754 -0.233772 8.27665 0.512278 5.77816 2.17505C3.27967 3.83782 1.43617 6.31441 0.562149 9.18254C-0.312063 12.0506 -0.163041 15.1328 0.984032 17.9034C2.13113 20.674 4.20493 22.9619 6.8524 24.3764C9.49967 25.791 12.5565 26.245 15.5015 25.6608C18.4464 25.0767 21.0975 23.4907 23.0022 21.1732C24.9071 18.8559 25.948 15.9503 25.9476 12.9525V12.8113L30 12.7796Z" fill="#DF2B2F"/>
</svg>
