<svg width="17" height="20" viewBox="0 0 17 20" fill="none" xmlns="http://www.w3.org/2000/svg">
<path d="M8.16396 15.9985C9.32818 15.9985 10.4791 15.7537 11.5385 15.2784L14.5294 19.4344C14.9621 20.0372 15.8104 20.1805 16.4237 19.756C17.037 19.3329 17.1844 18.5009 16.7516 17.8981L13.7913 13.7825C15.6325 12.056 16.5458 9.58615 16.2617 7.10337C15.9763 4.62182 14.5254 2.41244 12.3376 1.13122C10.1512 -0.149933 7.48024 -0.354316 5.11733 0.57657C2.75305 1.50619 0.968885 3.46695 0.293281 5.87544C-0.383751 8.2841 0.126015 10.8633 1.67124 12.8502C3.21513 14.8357 5.61651 16.0011 8.16396 15.9985ZM8.16396 2.66628C9.60563 2.66628 10.9889 3.22873 12.0082 4.22864C13.0276 5.22855 13.6012 6.5852 13.6012 7.99898C13.6012 9.41276 13.0278 10.7696 12.0082 11.7693C10.9887 12.7691 9.60546 13.3317 8.16396 13.3317C6.72245 13.3317 5.33903 12.7692 4.31967 11.7693C3.30032 10.7694 2.72667 9.41276 2.72667 7.99898C2.72667 6.5852 3.30015 5.22839 4.31967 4.22864C5.3392 3.22889 6.72245 2.66628 8.16396 2.66628Z" fill="black"/>
</svg>
