<svg width="112" height="85" viewBox="0 0 112 85" fill="none" xmlns="http://www.w3.org/2000/svg">
<path d="M50.85 37.46C50.85 45.74 49.7767 52.7933 47.63 58.62C45.33 64.4467 42.1867 69.2 38.2 72.88C34.2133 76.56 29.3067 79.32 23.48 81.16C17.6533 83 11.2133 83.9967 4.15999 84.15L0.479984 67.36C15.9667 65.52 23.48 58.3133 23.02 45.74L6 45.74L6 0.889996L50.85 0.89L50.85 37.46ZM111.8 37.46C111.8 45.74 110.727 52.7933 108.58 58.62C106.433 64.4467 103.367 69.2 99.38 72.88C95.24 76.56 90.3333 79.32 84.66 81.16C78.8333 83 72.3167 83.9967 65.11 84.15L61.66 67.36C77.3 65.52 84.7367 58.3133 83.97 45.74L66.95 45.74L66.95 0.890001L111.8 0.890005L111.8 37.46Z" fill="#E9E9E9"/>
</svg>
