<?xml version="1.0" encoding="UTF-8"?>
<!DOCTYPE svg PUBLIC "-//W3C//DTD SVG 1.1//EN" "http://www.w3.org/Graphics/SVG/1.1/DTD/svg11.dtd">
<svg xmlns="http://www.w3.org/2000/svg" version="1.1" width="1080px" height="1080px" style="shape-rendering:geometricPrecision; text-rendering:geometricPrecision; image-rendering:optimizeQuality; fill-rule:evenodd; clip-rule:evenodd" xmlns:xlink="http://www.w3.org/1999/xlink">
<g><path style="opacity:0.989" fill="#fe0000" d="M 745.5,85.5 C 828.282,81.9117 897.782,110.245 954,170.5C 988.595,212.495 1003.6,260.829 999,315.5C 991.895,404.597 948.062,468.097 867.5,506C 825.401,522.776 781.735,529.109 736.5,525C 659.606,518.824 599.773,483.991 557,420.5C 525.872,365.609 517.205,307.275 531,245.5C 543.69,200.611 568.856,164.444 606.5,137C 647.807,106.286 694.141,89.1195 745.5,85.5 Z M 747.5,190.5 C 799.699,186.518 840.199,206.185 869,249.5C 883.484,276.539 886.484,304.873 878,334.5C 861.648,383.852 827.815,412.686 776.5,421C 715.897,424.628 673.397,398.794 649,343.5C 630.652,283.195 648.485,237.028 702.5,205C 716.777,197.522 731.777,192.689 747.5,190.5 Z"/></g>
<g><path style="opacity:0.99" fill="#000000" d="M 80.5,99.5 C 121.406,99.17 162.239,99.5033 203,100.5C 237.195,182.753 271.195,265.086 305,347.5C 339.592,265.312 373.925,182.978 408,100.5C 448.766,99.1705 489.6,99.1705 530.5,100.5C 469.833,237.167 409.167,373.833 348.5,510.5C 318.934,511.828 289.434,511.828 260,510.5C 200.064,373.517 140.23,236.517 80.5,99.5 Z"/></g>
<g><path style="opacity:0.991" fill="#fe0000" d="M 129.5,578.5 C 248.167,578.333 366.834,578.5 485.5,579C 418.25,685.498 351.25,792.165 284.5,899C 344.166,899.5 403.832,899.667 463.5,899.5C 463.5,929.833 463.5,960.167 463.5,990.5C 340.832,990.833 218.165,990.5 95.5,989.5C 162.5,883.5 229.5,777.5 296.5,671.5C 240.837,670.5 185.171,670.167 129.5,670.5C 129.5,639.833 129.5,609.167 129.5,578.5 Z"/></g>
<g><path style="opacity:0.995" fill="#000000" d="M 731.5,578.5 C 768.833,578.5 806.167,578.5 843.5,578.5C 843.5,715.833 843.5,853.167 843.5,990.5C 806.167,990.5 768.833,990.5 731.5,990.5C 731.5,853.167 731.5,715.833 731.5,578.5 Z"/></g>
</svg>
